# xmcd
#
# Track frame offsets: 
#        150
#        19666
#        37852
#        57004
#        70762
#        94662
#        114864
#        133230
#        151461
#        170205
#        189708
#        207685
#        228718
#        247018
#        266995
#        286596
#        305103
#        326334
#        346269
#
# Disc length: 4817 seconds
#
# Revision: 5
# Processed by: cddbd v1.5.2PL0 Copyright (c) Steve Scherf et al.
# Submitted via: ExactAudioCopy v1.0b3
#
DISCID=1b12cf13
DTITLE=Kenny G - Ultimate Kenny G
DYEAR=2003
DGENRE=Jazz
TTITLE0=Everlasting [#]
TTITLE1=Havana
TTITLE2=Brazil
TTITLE3=What A Wonderful World (Louis Armstrong With Kenny G)
TTITLE4=The Look Of Love
TTITLE5=Silhouette
TTITLE6=One More Time (With Chante Moore)
TTITLE7=Theme From Dying Young
TTITLE8=Forever In Love
TTITLE9=We've Saved The Best For Last
TTITLE10=Songbird
TTITLE11=Jasmine Flower
TTITLE12=The Girl From Ipanema (With Bebel Gilberto)
TTITLE13=By The Time This Night Is Over (With Peabo Bryson)
TTITLE14=The Champion's Theme
TTITLE15=Don't Make Me Wait For Love
TTITLE16=The Moment
TTITLE17=My Heart Will Go On (Love Theme From Titanic)
TTITLE18=The Wedding Song
EXTD=YEAR: 2003
EXTT0=
EXTT1=
EXTT2=
EXTT3=
EXTT4=
EXTT5=
EXTT6=
EXTT7=
EXTT8=
EXTT9=
EXTT10=
EXTT11=
EXTT12=
EXTT13=
EXTT14=
EXTT15=
EXTT16=
EXTT17=
EXTT18=
PLAYORDER=
